HIERARCHY
ROOT Hips
{
	OFFSET 0.00000 0.00000 0.00000
	CHANNELS 6 Xposition Yposition Zposition Zrotation Yrotation Xrotation 
	JOINT LHipJoint
	{
		OFFSET 0 0 0
		CHANNELS 3 Zrotation Yrotation Xrotation
		JOINT LeftHip
		{
			OFFSET 1.60223 -1.58443 0.78595
			CHANNELS 3 Zrotation Yrotation Xrotation
			JOINT LeftKnee
			{
				OFFSET 2.21690 -6.09089 0.00000
				CHANNELS 3 Zrotation Yrotation Xrotation
				JOINT LeftAnkle
				{
					OFFSET 2.34805 -6.45122 0.00000
					CHANNELS 3 Zrotation Yrotation Xrotation
					JOINT LeftToe
					{
						OFFSET 0.35452 -0.97402 1.38549
						CHANNELS 3 Zrotation Yrotation Xrotation
						End Site
						{
							OFFSET 0.00000 -0.00000 0.82816
						}
					}
				}
			}
		}
	}
	JOINT RHipJoint
	{
		OFFSET 0 0 0
		CHANNELS 3 Zrotation Yrotation Xrotation
		JOINT RightHip
		{
			OFFSET -1.56524 -1.58443 0.78595
			CHANNELS 3 Zrotation Yrotation Xrotation
			JOINT RightKnee
			{
				OFFSET -2.15558 -5.92241 0.00000
				CHANNELS 3 Zrotation Yrotation Xrotation
				JOINT RightAnkle
				{
					OFFSET -2.35077 -6.45870 0.00000
					CHANNELS 3 Zrotation Yrotation Xrotation
					JOINT RightToe
					{
						OFFSET -0.26910 -0.73935 1.33295
						CHANNELS 3 Zrotation Yrotation Xrotation
						End Site
						{
							OFFSET -0.00000 -0.00000 0.75962
						}
					}
				}
			}
		}
	}
	JOINT lowerback
	{
		OFFSET 0 0 0
		CHANNELS 3 Zrotation Yrotation Xrotation
		JOINT Chest
		{
			OFFSET -0.05489 1.97104 -0.02993
			CHANNELS 3 Zrotation Yrotation Xrotation
			JOINT Chest2
			{
				OFFSET -0.00702 1.94230 0.13626
				CHANNELS 3 Zrotation Yrotation Xrotation
				JOINT lowerneck
				{
					OFFSET 0 0 0
					CHANNELS 3 Zrotation Yrotation Xrotation
					JOINT Neck
					{
						OFFSET -0.07858 1.62869 -0.02510
						CHANNELS 3 Zrotation Yrotation Xrotation
						JOINT Head
						{
							OFFSET 0.13978 1.59213 -0.29859
							CHANNELS 3 Zrotation Yrotation Xrotation
							End Site
							{
								OFFSET 0.05353 1.64420 -0.10000
							}
						}
					}
				}
				JOINT LeftCollar
				{
					OFFSET 0 0 0
					CHANNELS 3 Zrotation Yrotation Xrotation
					JOINT LeftShoulder
					{
						OFFSET 3.48263 1.15278 0.52941
CHANNELS 3 Zrotation Xrotation Yrotation
						JOINT LeftElbow
						{
OFFSET 0 -4.592070 -0.000000
CHANNELS 3 Zrotation Xrotation Yrotation
							JOINT LeftWrist
							{
OFFSET 0 -2.981090 -0.000000
CHANNELS 3 Zrotation Xrotation Yrotation
								JOINT lhand
								{
									OFFSET 0 0 0
CHANNELS 3 Zrotation Xrotation Yrotation
									JOINT LFingers
									{
OFFSET 0 -0.480200 -0.000000
CHANNELS 3 Zrotation Xrotation Yrotation
										End Site
										{
OFFSET 0 -0.387150 -0.000000
										}
									}
								}
								JOINT LThumb
								{
OFFSET 0 0.000000 0.000000
CHANNELS 3 Zrotation Xrotation Yrotation
									End Site
									{
OFFSET 0 -0.393060 0.393060
									}
								}
							}
						}
					}
				}
				JOINT RightCollar
				{
					OFFSET 0 0 0
					CHANNELS 3 Zrotation Yrotation Xrotation
					JOINT RightShoulder
					{
						OFFSET -3.52496 1.12722 0.24548
CHANNELS 3 Zrotation Xrotation Yrotation
						JOINT RightElbow
						{
OFFSET 0 -4.765080 -0.000000
CHANNELS 3 Zrotation Xrotation Yrotation
							JOINT RightWrist
							{
OFFSET 0 -2.789020 -0.000000
CHANNELS 3 Zrotation Xrotation Yrotation
								JOINT rhand
								{
									OFFSET 0 0 0
CHANNELS 3 Zrotation Xrotation Yrotation
									JOINT RFingers
									{
OFFSET 0 -0.721300 -0.000000
CHANNELS 3 Zrotation Xrotation Yrotation
										End Site
										{
OFFSET 0 -0.581530 -0.000000
										}
									}
								}
								JOINT RThumb
								{
OFFSET 0 0.000000 0.000000
CHANNELS 3 Zrotation Xrotation Yrotation
									End Site
									{
OFFSET 0 -0.590410 0.590410
									}
								}
							}
						}
					}
				}
			}
		}
	}
}
MOTION
Frames: 8
Frame Time: 0.008333333333333333
24.679200 15.710000 0.132200 60.084900 -85.824300 -55.634600 0.000000 0.000000 0.000000 -28.614500 -1.816900 -16.064900 3.556500 11.545600 34.142800 2.420200 -2.951800 -28.697900 0.607000 -4.986700 -13.870600 0.000000 0.000000 0.000000 15.590600 9.214700 -15.330700 -3.470400 -11.420200 33.710300 -2.436900 -0.305300 -29.685700 -0.432000 4.217700 -11.690000 -8.723600 1.825800 0.176200 0.888800 2.065600 -5.782400 5.708600 1.472900 -6.555900 -10.283000 -4.686600 -1.759700 10.361700 -6.687000 7.013900 4.583900 -3.306600 3.054300 -0.000000 -0.000000 0.000000 -9.637400 14.471400 11.178700 20.829000 -31.628200 5.960000 15.566500 52.620500 -34.962400 0.000000 0.000000 0.000000 -7.125000 0.000000 0.000000 -22.430800 64.610300 10.905800 -0.000000 -0.000000 0.000000 3.153800 9.637200 10.943600 -18.211100 -28.426700 -4.649300 4.446900 11.435200 -25.678800 0.000000 0.000000 0.000000 7.125000 0.000000 -0.000000 20.425000 5.519700 19.690600
24.666626 15.712621 0.141822 17.920393 -86.265767 -13.005866 0.000000 0.000000 0.000000 -25.646660 -2.451905 -17.652113 3.984214 12.139351 36.226923 2.515204 -4.579023 -28.967616 0.557437 -4.782261 -13.288484 0.000000 0.000000 0.000000 18.434002 8.709487 -14.990282 -3.150027 -10.934016 32.057581 -2.298294 -1.386372 -29.202757 -0.250114 3.217331 -8.884418 -6.283857 1.430228 -0.454964 1.515521 1.694084 -5.818747 5.034404 1.162318 -6.068045 -10.591049 -4.744708 -1.450480 10.708223 -6.778819 6.620782 4.746820 -3.359090 2.917805 0.000000 0.000000 0.000000 -10.176717 18.434138 -2.809741 22.475052 -33.509509 6.846385 15.439987 25.813974 -38.105245 0.000000 0.000000 0.000000 -7.125000 0.000000 0.000000 -26.321402 67.360419 14.565141 0.000000 0.000000 0.000000 3.240649 9.551024 7.191087 -17.055795 -26.931217 -4.112653 12.743030 15.353138 -32.180224 0.000000 0.000000 0.000000 7.125000 0.000000 0.000000 24.461426 -0.457689 27.269611
24.663700 15.702130 0.164775 19.668785 -85.858831 -14.902124 0.000000 0.000000 0.000000 -26.011346 -2.876393 -17.338972 3.998825 12.158864 36.296323 2.543565 -4.488155 -29.153544 0.598478 -4.952118 -13.772012 0.000000 0.000000 0.000000 18.107101 8.454924 -14.983478 -3.198547 -11.009762 32.312774 -2.328872 -1.470205 -29.424462 -0.267231 3.325407 -9.186169 -6.325590 1.309334 -0.391995 1.294929 1.530023 -5.605312 4.833802 1.066688 -5.846107 -10.480111 -4.771631 -1.630481 10.678724 -6.802887 6.661296 4.713599 -3.363447 2.957686 0.000000 0.000000 0.000000 -10.540114 16.655357 -0.096188 20.737039 -31.519936 5.911932 15.089707 29.719935 -38.246118 0.000000 0.000000 0.000000 -7.125000 0.000000 0.000000 -26.907053 67.376546 14.917549 0.000000 0.000000 0.000000 3.381496 9.502034 4.505284 -16.121534 -25.684961 -3.698531 21.928372 19.981964 -37.034860 0.000000 0.000000 0.000000 7.125000 0.000000 0.000000 28.408562 -5.410568 35.452447
24.663009 15.695317 0.182210 20.638013 -85.509323 -16.025080 0.000000 0.000000 0.000000 -26.263226 -2.800552 -17.121137 3.978020 12.131094 36.197380 2.527638 -4.740352 -29.016442 0.644372 -5.135151 -14.294531 0.000000 0.000000 0.000000 17.889393 8.473524 -14.953479 -3.267466 -11.115938 32.671905 -2.365659 -1.807944 -29.779118 -0.290575 3.466257 -9.579591 -6.213253 1.250788 -0.307814 0.970449 1.445247 -5.436309 4.432323 1.002457 -5.686022 -10.351583 -4.846231 -1.481929 10.923450 -6.946738 6.655328 4.765054 -3.431402 2.950278 0.000000 0.000000 0.000000 -10.470725 15.963404 -0.458393 20.573082 -31.318886 5.830001 13.877644 29.367704 -38.602616 0.000000 0.000000 0.000000 -7.125000 0.000000 0.000000 -28.766336 67.313406 15.982757 0.000000 0.000000 0.000000 3.840818 9.830722 2.566738 -15.596181 -24.970040 -3.473758 21.408089 17.618997 -37.658200 0.000000 0.000000 0.000000 7.125000 0.000000 0.000000 28.127766 -5.939721 35.231990
24.663831 15.690234 0.192714 21.362537 -85.417564 -16.789202 0.000000 0.000000 0.000000 -26.355795 -2.278835 -17.304298 3.987594 12.143804 36.242658 2.514160 -5.311675 -28.850308 0.638201 -5.111103 -14.225799 0.000000 0.000000 0.000000 17.768262 8.591057 -15.002598 -3.312385 -11.184342 32.904032 -2.379891 -2.045653 -29.957321 -0.317339 3.621135 -10.013148 -6.019152 1.210590 -0.309323 0.730245 1.393221 -5.311153 4.074368 0.954053 -5.529444 -10.513538 -4.854097 -1.607096 11.152430 -6.987070 6.969485 4.856122 -3.445757 3.081706 0.000000 0.000000 0.000000 -10.560348 14.389360 -0.662810 20.074083 -30.731221 5.569312 13.131054 28.945972 -38.401895 0.000000 0.000000 0.000000 -7.125000 0.000000 0.000000 -29.296422 66.924076 16.033243 0.000000 0.000000 0.000000 4.316610 10.513025 1.991044 -15.596665 -24.970693 -3.473907 20.912537 16.758993 -38.041526 0.000000 0.000000 0.000000 7.125000 0.000000 0.000000 27.879146 -6.253347 34.965191
24.662374 15.685126 0.196626 19.776114 -85.337476 -15.306713 0.000000 0.000000 0.000000 -26.244162 -2.055088 -17.344780 4.018785 12.185321 36.390683 2.517631 -5.638736 -28.826764 0.646923 -5.145359 -14.323518 0.000000 0.000000 0.000000 17.865880 8.321732 -14.976092 -3.315335 -11.188791 32.919431 -2.369804 -1.996708 -29.876927 -0.319070 3.631019 -10.040830 -5.806711 1.227491 -0.392787 0.587377 1.432948 -5.094710 3.806720 0.949555 -5.243010 -10.588641 -4.861072 -1.398019 11.494156 -7.017626 6.675901 4.980138 -3.461469 2.977359 0.000000 0.000000 0.000000 -10.980017 14.114463 -2.796016 21.431666 -32.328229 6.279477 12.647720 27.427921 -38.313243 0.000000 0.000000 0.000000 -7.125000 0.000000 0.000000 -29.702531 66.706753 16.126499 0.000000 0.000000 0.000000 4.819676 11.030985 1.964961 -15.996793 -25.516246 -3.644662 20.297588 16.954250 -39.399666 0.000000 0.000000 0.000000 7.125000 0.000000 0.000000 27.509941 -7.462510 34.880075
24.670512 15.684218 0.189580 18.564388 -85.115565 -14.022798 0.000000 0.000000 0.000000 -26.205669 -2.587892 -17.341293 4.036985 12.209464 36.477043 2.533667 -5.454499 -28.947713 0.615990 -5.023085 -13.974481 0.000000 0.000000 0.000000 17.912445 8.354301 -15.061563 -3.318503 -11.193642 32.935768 -2.384647 -2.126654 -30.018201 -0.326007 3.669953 -10.149875 -5.704815 1.133220 -0.440641 0.451042 1.311779 -5.000156 3.614313 0.875899 -5.093900 -10.637129 -4.931790 -1.522404 11.590730 -7.126625 6.870175 5.008457 -3.509951 3.072975 0.000000 0.000000 0.000000 -11.120186 13.770809 -5.513955 22.639931 -33.692218 6.937739 13.134904 26.001414 -38.042682 0.000000 0.000000 0.000000 -7.125000 0.000000 0.000000 -28.804587 66.622050 15.549956 0.000000 0.000000 0.000000 5.242382 11.267308 2.934290 -16.515596 -26.214688 -3.870929 19.720468 15.894997 -39.846049 0.000000 0.000000 0.000000 7.125000 0.000000 0.000000 27.227274 -7.837356 34.575821
24.675305 15.686857 0.172993 18.447158 -85.244587 -13.904908 0.000000 0.000000 0.000000 -26.123218 -2.939380 -17.263180 4.047906 12.223942 36.528774 2.535991 -4.922290 -29.038871 0.670105 -5.234497 -14.578635 0.000000 0.000000 0.000000 18.034805 8.475263 -14.977348 -3.291184 -11.152133 32.794780 -2.371675 -2.170728 -29.955848 -0.325152 3.664929 -10.135890 -5.650394 1.061902 -0.436072 0.309234 1.214458 -4.939070 3.440564 0.818417 -5.015674 -10.558675 -4.891027 -1.515508 11.709268 -7.102497 7.024072 5.033509 -3.494074 3.115487 0.000000 0.000000 0.000000 -11.017979 13.497026 -7.650011 24.019278 -35.183883 7.717959 9.217700 23.149379 -39.796966 0.000000 0.000000 0.000000 -7.125000 0.000000 0.000000 -35.503859 66.893058 19.733340 0.000000 0.000000 0.000000 5.607880 10.904681 3.382351 -16.571731 -26.289718 -3.895809 20.091033 17.156580 -40.115684 0.000000 0.000000 0.000000 7.125000 0.000000 0.000000 27.372002 -8.110860 34.920791
